<svg width="7" height="10" viewBox="0 0 7 10" fill="none" xmlns="http://www.w3.org/2000/svg">
<path d="M4.82017 9.14967C5.10347 9.45186 5.57809 9.46717 5.88028 9.18387C6.18246 8.90057 6.19777 8.42595 5.91447 8.12376L4.82017 9.14967ZM1.73096 4.75793L1.20063 4.2276C0.91439 4.51384 0.906945 4.97557 1.1838 5.27089L1.73096 4.75793ZM5.89765 1.6519C6.19054 1.359 6.19054 0.88413 5.89765 0.591237C5.60476 0.298343 5.12988 0.298344 4.83699 0.591237L5.89765 1.6519ZM5.91447 8.12376L2.27811 4.24497L1.1838 5.27089L4.82017 9.14967L5.91447 8.12376ZM2.26129 5.28826L5.89765 1.6519L4.83699 0.591237L1.20063 4.2276L2.26129 5.28826Z" fill="white"/>
</svg>
