<svg width="18" height="12" viewBox="0 0 18 12" fill="none" xmlns="http://www.w3.org/2000/svg">
<path fill-rule="evenodd" clip-rule="evenodd" d="M16.6701 0.666016H15.6701C15.1178 0.666016 14.6701 1.11373 14.6701 1.66602V10.3327C14.6701 10.885 15.1178 11.3327 15.6701 11.3327H16.6701C17.2224 11.3327 17.6701 10.885 17.6701 10.3327V1.66602C17.6701 1.11373 17.2224 0.666016 16.6701 0.666016ZM11.0034 2.99935H12.0034C12.5557 2.99935 13.0034 3.44706 13.0034 3.99935V10.3327C13.0034 10.885 12.5557 11.3327 12.0034 11.3327H11.0034C10.4511 11.3327 10.0034 10.885 10.0034 10.3327V3.99935C10.0034 3.44706 10.4511 2.99935 11.0034 2.99935ZM7.33674 5.33268H6.33674C5.78446 5.33268 5.33674 5.7804 5.33674 6.33268V10.3327C5.33674 10.885 5.78446 11.3327 6.33674 11.3327H7.33674C7.88903 11.3327 8.33674 10.885 8.33674 10.3327V6.33268C8.33674 5.7804 7.88903 5.33268 7.33674 5.33268ZM2.67007 7.33268H1.67007C1.11779 7.33268 0.670074 7.7804 0.670074 8.33268V10.3327C0.670074 10.885 1.11779 11.3327 1.67007 11.3327H2.67007C3.22236 11.3327 3.67007 10.885 3.67007 10.3327V8.33268C3.67007 7.7804 3.22236 7.33268 2.67007 7.33268Z" fill="white"/>
</svg>
