<svg width="19" height="18" viewBox="0 0 19 18" fill="none" xmlns="http://www.w3.org/2000/svg">
<path d="M13.3679 11.3208H12.5549L12.2667 11.0429C13.2753 9.86964 13.8825 8.34648 13.8825 6.68954C13.8825 2.99485 10.8876 0 7.19296 0C3.49827 0 0.503418 2.99485 0.503418 6.68954C0.503418 10.3842 3.49827 13.3791 7.19296 13.3791C8.8499 13.3791 10.3731 12.7719 11.5463 11.7633L11.8242 12.0515V12.8645L16.97 18L18.5034 16.4666L13.3679 11.3208ZM7.19296 11.3208C4.63035 11.3208 2.56174 9.25214 2.56174 6.68954C2.56174 4.12693 4.63035 2.05832 7.19296 2.05832C9.75556 2.05832 11.8242 4.12693 11.8242 6.68954C11.8242 9.25214 9.75556 11.3208 7.19296 11.3208Z" fill="white"/>
</svg>
