<svg width="16" height="7" viewBox="0 0 16 7" fill="none" xmlns="http://www.w3.org/2000/svg">
<path d="M15.2227 2.30486C15.592 2.11737 15.7395 1.66596 15.552 1.29661C15.3645 0.927258 14.9131 0.779837 14.5437 0.967332L15.2227 2.30486ZM7.71989 5.27246L7.36277 5.93198C7.57937 6.04926 7.83974 6.05272 8.05938 5.94123L7.71989 5.27246ZM1.36141 0.976577C0.997162 0.779347 0.541998 0.914737 0.344768 1.27898C0.147538 1.64322 0.282928 2.09839 0.647171 2.29562L1.36141 0.976577ZM14.5437 0.967332L7.3804 4.6037L8.05938 5.94123L15.2227 2.30486L14.5437 0.967332ZM8.077 4.61294L1.36141 0.976577L0.647171 2.29562L7.36277 5.93198L8.077 4.61294Z" fill="white"/>
</svg>
