<svg width="16" height="12" viewBox="0 0 16 12" fill="none" xmlns="http://www.w3.org/2000/svg">
<path fill-rule="evenodd" clip-rule="evenodd" d="M8.33375 2.60741C10.5496 2.6075 12.6808 3.45894 14.2867 4.98574C14.4077 5.10361 14.601 5.10213 14.7201 4.98241L15.8761 3.81574C15.9364 3.75502 15.97 3.67276 15.9695 3.58718C15.969 3.5016 15.9344 3.41975 15.8734 3.35974C11.6583 -0.679809 5.00851 -0.679809 0.793416 3.35974C0.732357 3.41971 0.697714 3.50153 0.697151 3.58712C0.696587 3.6727 0.730152 3.75497 0.790416 3.81574L1.94675 4.98241C2.06578 5.10231 2.25922 5.1038 2.38008 4.98574C3.98623 3.45884 6.11764 2.6074 8.33375 2.60741ZM8.33375 6.40307C9.55124 6.403 10.7253 6.85553 11.6277 7.67274C11.7498 7.78872 11.9421 7.7862 12.0611 7.66707L13.2157 6.50041C13.2766 6.43921 13.3103 6.35619 13.3094 6.26993C13.3085 6.18366 13.2731 6.10135 13.2111 6.04141C10.4629 3.48502 6.20695 3.48502 3.45875 6.04141C3.39667 6.10135 3.36125 6.1837 3.36044 6.27C3.35962 6.35629 3.39348 6.4393 3.45442 6.50041L4.60875 7.66707C4.72774 7.7862 4.92002 7.78872 5.04208 7.67274C5.94395 6.85607 7.11706 6.40358 8.33375 6.40307ZM10.6467 8.95689C10.6485 9.0434 10.6145 9.1268 10.5527 9.18741L8.55542 11.2031C8.49687 11.2623 8.41704 11.2957 8.33375 11.2957C8.25046 11.2957 8.17063 11.2623 8.11208 11.2031L6.11442 9.18741C6.0527 9.12675 6.01876 9.04333 6.02059 8.95682C6.02242 8.87031 6.05986 8.78839 6.12408 8.73041C7.39965 7.65152 9.26784 7.65152 10.5434 8.73041C10.6076 8.78844 10.645 8.87038 10.6467 8.95689Z" fill="white"/>
</svg>
